<svg xmlns="http://www.w3.org/2000/svg" viewBox="0 0 512 512">
  <!-- Fundo na cor clara da paleta da marca -->
  <circle cx="256" cy="256" r="256" fill="#fbe9ed" />
  <!-- Ícone de presente centralizado e dimensionado (usando a cor principal) -->
  <g transform="translate(128, 128) scale(10.666)">
    <svg xmlns="http://www.w3.org/2000/svg" width="24" height="24" viewBox="0 0 24 24" fill="none" stroke="#cf4e71" stroke-width="2.5" stroke-linecap="round" stroke-linejoin="round">
      <rect x="3" y="8" width="18" height="4" rx="1"/>
      <path d="M12 8v13"/>
      <path d="M19 12v7a2 2 0 0 1-2 2H7a2 2 0 0 1-2-2v-7"/>
      <path d="M7.5 8a2.5 2.5 0 0 1 0-5A4.8 8 0 0 1 12 8a4.8 8 0 0 1 4.5-5 2.5 2.5 0 0 1 0 5"/>
    </svg>
  </g>
</svg>